<?xml version="1.0" standalone="no"?>
<!DOCTYPE svg PUBLIC "-//W3C//DTD SVG 20010904//EN"
 "http://www.w3.org/TR/2001/REC-SVG-20010904/DTD/svg10.dtd">
<svg version="1.0" xmlns="http://www.w3.org/2000/svg"
 width="300.000000pt" height="300.000000pt" viewBox="0 0 300.000000 300.000000"
 preserveAspectRatio="xMidYMid meet">
<metadata>
Created by potrace 1.11, written by Peter Selinger 2001-2013
</metadata>
<g transform="translate(0.000000,300.000000) scale(0.100000,-0.100000)"
fill="#000000" stroke="none">
<path d="M0 1500 l0 -1500 1500 0 1500 0 0 1500 0 1500 -1500 0 -1500 0 0
-1500z m601 1009 c7 -15 14 -18 21 -11 11 11 55 7 99 -10 21 -7 35 -6 59 7 19
10 36 13 43 7 7 -4 118 -10 247 -11 l234 -3 33 -29 c19 -16 40 -29 48 -29 13
0 13 -4 3 -22 -7 -13 -18 -26 -24 -30 -8 -5 -12 -40 -12 -95 1 -80 3 -90 26
-116 l26 -27 -21 -15 c-11 -8 -24 -31 -28 -52 -4 -21 -12 -41 -18 -45 -7 -4
-7 -11 2 -22 9 -11 10 -16 2 -16 -7 0 -10 -29 -7 -92 l3 -93 -34 -33 c-44 -44
-76 -52 -210 -52 l-111 0 -7 -75 c-4 -41 -5 -86 -1 -99 5 -22 9 -24 35 -16 32
9 115 3 146 -10 11 -5 61 -11 110 -13 84 -4 129 -17 147 -42 19 -25 5 -34 -69
-40 -43 -4 -84 -12 -91 -18 -9 -7 -16 -7 -24 1 -16 16 -111 15 -126 0 -10 -10
-18 -9 -40 3 -16 10 -39 13 -57 10 l-30 -6 -3 -88 -3 -87 30 0 c16 0 33 -4 36
-10 10 -15 56 -12 76 6 14 12 24 13 55 5 20 -6 41 -8 46 -5 4 3 8 0 8 -5 0
-14 57 -14 65 -1 9 15 57 12 79 -5 11 -8 30 -15 42 -15 30 0 51 -27 37 -48
-15 -25 -185 -53 -198 -33 -9 15 -105 14 -105 -1 0 -9 -3 -9 -12 0 -13 13
-150 17 -162 5 -10 -11 -30 -10 -37 0 -4 5 -114 11 -247 14 -240 6 -240 6
-251 29 -9 21 -8 24 9 24 11 0 36 9 57 21 29 16 41 19 55 10 11 -7 19 -7 23
-1 3 6 30 10 60 10 30 0 66 5 81 10 18 7 30 7 39 0 6 -5 15 -7 18 -4 4 4 18
-1 33 -11 24 -16 28 -16 42 -1 13 12 17 37 17 104 l0 87 -109 -2 c-60 -1 -114
-7 -120 -13 -6 -6 -14 -6 -21 0 -22 19 -118 32 -141 19 -13 -7 -28 -8 -37 -3
-13 8 -9 17 26 57 43 47 72 58 95 35 9 -9 12 -9 12 3 0 15 11 16 213 8 10 0
21 -7 24 -15 6 -15 42 -10 54 8 10 15 9 170 -1 189 -8 15 -22 17 -87 15 -43
-1 -98 3 -121 10 -24 7 -49 11 -55 8 -7 -2 -18 10 -26 27 -7 16 -22 38 -33 48
-10 10 -21 36 -24 57 -3 22 -8 46 -11 54 -11 31 -13 110 -3 110 5 0 10 9 10
20 0 13 -7 20 -20 20 -24 0 -24 -1 -5 36 19 39 28 181 12 187 -9 3 -9 9 0 25
7 12 15 40 19 64 9 64 44 138 65 138 5 0 13 -9 20 -21z m1529 -56 c14 8 22 8
32 -1 11 -9 17 -9 26 0 9 9 12 9 12 0 0 -11 50 -9 70 3 6 4 19 3 28 -1 27 -11
56 -12 69 -2 7 6 19 4 32 -4 16 -10 23 -10 33 0 17 17 63 15 78 -3 7 -8 19
-15 26 -15 28 0 13 -41 -31 -85 -25 -25 -50 -45 -55 -45 -6 0 -10 -11 -10 -24
0 -14 -5 -28 -11 -31 -5 -4 -8 -12 -6 -18 2 -7 -2 -16 -10 -22 -7 -5 -14 -22
-15 -37 -1 -16 -9 -29 -20 -31 -11 -3 -18 -15 -18 -30 0 -14 -7 -28 -17 -31
-12 -5 -14 -9 -5 -18 17 -17 15 -28 -5 -28 -19 -1 -50 -20 -51 -33 -3 -33 -17
-75 -29 -89 -8 -9 -12 -22 -8 -28 4 -7 1 -16 -6 -21 -12 -8 -11 -12 4 -23 21
-17 22 -45 0 -75 -20 -29 -27 -125 -10 -139 7 -5 83 -12 171 -16 87 -3 163 -9
170 -14 6 -5 40 -12 76 -16 70 -7 90 -17 72 -38 -20 -25 -95 -39 -192 -35
-113 5 -268 -9 -287 -24 -9 -8 -10 -15 -3 -24 12 -14 19 -145 9 -145 -11 0 -5
-34 9 -48 7 -8 9 -24 5 -40 -4 -15 -6 -34 -6 -42 8 -86 -2 -311 -14 -318 -6
-4 -14 -23 -18 -42 -4 -19 -10 -39 -14 -45 -4 -5 -13 -29 -21 -52 -7 -23 -24
-53 -38 -65 -13 -13 -28 -33 -33 -45 -5 -13 -16 -23 -25 -23 -23 0 -54 29 -54
51 0 10 -4 21 -10 24 -5 3 -17 23 -27 43 -9 20 -36 58 -59 85 -41 46 -62 96
-50 116 4 5 2 12 -4 16 -18 11 -11 54 10 65 28 15 79 -21 87 -61 3 -16 10 -32
14 -35 5 -3 9 -16 9 -30 0 -14 7 -27 15 -30 8 -4 15 -12 15 -19 0 -6 9 -20 20
-30 20 -18 21 -18 34 1 8 10 18 35 21 53 4 19 13 44 21 55 17 24 19 138 4 167
-8 15 -7 19 5 19 12 0 15 12 15 55 0 30 -3 55 -7 55 -5 0 -8 63 -8 141 0 123
-2 142 -18 153 -12 10 -60 13 -166 13 -82 0 -154 4 -160 7 -6 4 -24 5 -40 1
-17 -3 -32 -2 -36 4 -3 6 -17 11 -31 11 -20 0 -24 5 -24 30 0 29 8 35 38 31 8
-1 20 3 27 9 12 10 263 25 357 21 28 -1 40 4 48 18 7 14 7 22 0 26 -7 4 -7 11
-2 18 5 7 9 58 9 114 1 77 -3 105 -14 114 -11 10 -11 14 -1 21 10 6 10 10 0
16 -9 6 -6 14 13 30 14 12 25 33 25 47 0 18 5 25 20 25 13 0 18 5 14 15 -4 8
-2 15 4 15 5 0 13 12 16 27 4 14 18 34 31 45 13 10 33 39 45 64 12 25 31 51
41 57 21 13 25 47 7 65 -9 9 -15 9 -25 0 -10 -8 -17 -8 -25 0 -6 6 -23 8 -38
5 -15 -3 -31 0 -34 6 -11 17 -93 14 -104 -4 -8 -16 -42 -11 -42 6 0 5 -4 9
-10 9 -5 0 -10 -6 -10 -14 0 -9 -12 -16 -32 -18 -25 -2 -38 3 -51 20 -14 16
-29 22 -60 22 -31 1 -51 8 -75 29 -19 16 -30 31 -25 34 25 14 79 19 171 18 77
-2 102 1 102 10 0 10 3 10 11 2 9 -9 16 -9 29 0z m-833 -1418 c30 -15 44 -34
48 -65 4 -30 17 -60 26 -60 5 0 9 -16 9 -36 0 -27 9 -48 35 -80 19 -23 35 -54
35 -68 0 -13 5 -28 10 -31 6 -4 8 -10 5 -15 -3 -5 0 -18 7 -29 10 -17 10 -23
0 -33 -11 -11 -17 -8 -34 15 -11 15 -26 27 -33 27 -22 0 -85 81 -85 110 0 14
-6 34 -14 45 -7 11 -14 22 -14 25 -1 3 -9 23 -18 45 -20 45 -32 165 -17 165 6
0 24 -7 40 -15z m-439 -44 c12 -11 22 -27 22 -38 1 -10 7 -29 15 -43 8 -14 14
-37 15 -52 0 -15 5 -30 10 -33 6 -3 10 -18 10 -32 0 -14 11 -38 25 -55 21 -24
24 -38 22 -84 -1 -30 -6 -54 -10 -54 -18 0 -47 22 -47 35 0 8 -4 15 -9 15 -5
0 -13 10 -17 23 -4 12 -17 36 -30 53 -13 17 -24 38 -24 47 0 10 -4 17 -9 17
-5 0 -12 17 -16 38 -4 20 -15 63 -26 95 -18 52 -18 59 -4 73 8 9 15 20 15 25
0 11 24 -1 58 -30z m241 20 c24 -18 51 -85 51 -127 0 -12 11 -29 25 -38 15
-10 23 -24 22 -38 -3 -41 14 -87 39 -107 28 -22 31 -36 9 -45 -8 -3 -15 -12
-15 -21 0 -8 7 -15 15 -15 8 0 15 -9 15 -20 0 -11 -5 -20 -11 -20 -17 0 -71
59 -64 70 3 5 -3 18 -13 28 -16 16 -33 48 -33 62 0 3 -6 12 -14 20 -7 8 -16
26 -20 40 -10 36 -36 93 -50 110 -17 20 -25 81 -13 103 11 22 27 21 57 -2z
m-439 -31 c0 -21 -3 -29 -38 -97 -12 -23 -22 -52 -22 -63 0 -12 -9 -33 -20
-47 -11 -14 -22 -41 -26 -62 -8 -43 -48 -101 -71 -101 -11 0 -13 6 -8 23 4 12
11 58 15 102 7 77 25 174 37 205 4 8 7 19 7 25 1 5 10 11 21 13 11 2 24 8 30
13 5 5 24 9 42 9 26 0 33 -4 33 -20z"/>
<path d="M635 2390 c-35 -13 -47 -37 -53 -105 -6 -84 1 -92 86 -94 239 -7 231
-10 212 70 -10 40 -10 54 -1 57 6 2 11 12 11 23 0 10 7 19 15 19 8 0 15 4 15
9 0 13 -128 13 -135 0 -4 -5 -15 -3 -28 5 -27 17 -95 26 -122 16z"/>
<path d="M992 2366 c-20 -12 -21 -15 -7 -26 11 -9 15 -32 15 -86 l0 -74 63 6
c34 4 79 10 101 14 25 6 45 5 57 -3 29 -18 39 1 45 85 5 64 4 76 -11 81 -35
14 -239 16 -263 3z"/>
<path d="M623 2048 c-23 -48 -23 -59 -1 -79 23 -19 23 -19 4 -34 -18 -13 -18
-17 -6 -41 21 -38 79 -64 147 -65 48 0 105 5 109 10 1 0 -2 19 -6 41 -4 22 -4
40 0 40 7 0 7 37 2 116 -2 22 4 21 -147 30 -88 6 -91 5 -102 -18z"/>
<path d="M1171 2061 c-8 -5 -20 -7 -28 -4 -7 3 -13 0 -13 -7 0 -8 -4 -9 -12
-3 -17 13 -58 14 -58 2 0 -14 -48 -11 -53 4 -4 9 -8 8 -16 -3 -13 -18 -11
-117 2 -147 7 -16 6 -27 -2 -37 -29 -35 30 -52 136 -41 81 8 109 33 118 103 3
26 10 55 16 65 6 11 6 24 -1 37 -6 11 -8 25 -5 30 8 13 -65 13 -84 1z"/>
</g>
</svg>
